<?xml version="1.0" standalone="no"?><!DOCTYPE svg PUBLIC "-//W3C//DTD SVG 1.1//EN" "http://www.w3.org/Graphics/SVG/1.1/DTD/svg11.dtd"><svg t="1764224577212" class="icon" viewBox="0 0 1098 1024" version="1.1" xmlns="http://www.w3.org/2000/svg" p-id="32467" xmlns:xlink="http://www.w3.org/1999/xlink" width="214.453125" height="200"><path d="M527.142615 0L222.333855 73.516335 43.814615 355.299397l16.98467 227.442413L0 807.25524l108.664134 9.765185L240.588514 1024l173.931263-56.989318 26.109139-53.036336-0.08581-0.697921 171.900425-245.994548 0.743687 0.800894 18.895374-4.43352 5.451799-18.09448 161.10552-35.679821 10.806346 11.635843 18.895374-4.433519 5.634861-18.700872-4.633743-4.976983 242.26467-230.82333 2.225341 2.38552 18.895374-4.43352 5.62914-18.677988v-0.022883l-13.254794-14.261631-13.798257 3.237899-254.117899-292.675218L527.142615 0z m304.888849 133.926615l-0.886704-1.44733 0.692201-0.143017 1.96219 1.658995-1.767687-0.068648z m-1.802011-1.264269l-82.137386 51.834995-5.234413-5.62914-18.889654 4.43352-2.946145 9.759463-206.487598 3.798525 315.695196-64.197363z m5.503284 2.969028l231.658548 196.09314-1.184179 0.274592-2.831732 9.399062-218.592536-32.396157 2.168134-7.208045-13.254793-14.267351-4.021632 0.94391 6.05819-152.839151z m-84.929072 75.129565l5.314503-17.625386-5.11428-5.503285 80.484112-50.77667-6.041028 152.610324-10.222838 2.396961-64.420469-81.101944z m-245.296626-9.519196l214.233386-3.935821-1.407285 4.69667 9.702257 10.445944-70.667442 233.660782-10.405899 2.442727-141.455017-247.310302zM368.588514 407.97533l132.26762-206.41895 141.844022 247.991061-3.890055 0.921028-4.60514 15.279911-331.890414 50.679419 66.273967-108.452469z m378.37086-195.315129l66.508514 83.733453-4.307665 14.273072 13.266235 14.267352 1.630391-0.383285-10.342972 261.20009-11.893274 2.791687-0.308916 1.041162-134.504402-116.146771 3.964424-13.134659-10.199955-10.966525 70.57019-233.334704 0.25171 0.268871 15.36572-3.609743z m81.330771 110.895196l13.031687-3.054838 2.225341-7.413989 218.598257 32.401877-1.578905 5.211531 8.180559 8.798391-242.264671 230.811888-5.766435-6.201207-2.768805 0.646436 10.342972-261.200089zM304.196648 520.409385l329.796648-50.370502 2.276827 2.459888-233.374749 133.234413L304.196648 520.409385z m104.608179 86.805453l230.411441-131.546816L646.435754 483.430972l18.895374-4.433519 0.348961-1.161297 134.498682 116.152492-3.621184 12.024849-161.740514 35.811397-10.365855-11.149587-18.889654 4.43924-1.647553 5.468961-195.109184-33.36867z m-3.718436 3.638346l197.603397 33.792-2.763084 9.170235 9.587843 10.314369-167.7701 240.090815-36.658056-293.367419z" fill="#1964C8" p-id="32468"></path></svg>