<?xml version="1.0" standalone="no"?><!DOCTYPE svg PUBLIC "-//W3C//DTD SVG 1.1//EN" "http://www.w3.org/Graphics/SVG/1.1/DTD/svg11.dtd"><svg t="1764225379298" class="icon" viewBox="0 0 1024 1024" version="1.1" xmlns="http://www.w3.org/2000/svg" p-id="50869" xmlns:xlink="http://www.w3.org/1999/xlink" width="200" height="200"><path d="M512.938667 92.842667c-232.021333 0-420.096 188.074667-420.096 420.096 0 231.978667 188.074667 420.053333 420.096 420.053333 231.978667 0 420.053333-188.074667 420.053333-420.053333 0-232.021333-188.074667-420.096-420.053333-420.096z m0 114.048a306.048 306.048 0 1 1 0 612.096 306.048 306.048 0 0 1 0-612.096z" fill="#5676FC" fill-opacity=".25" p-id="50870"></path><path d="M512.938667 92.842667V206.933333a306.048 306.048 0 1 0 234.453333 502.741334l7.68-9.557334 90.197333 69.845334A420.053333 420.053333 0 1 1 500.48 93.013333l12.373333-0.213333z" fill="#5676FC" fill-opacity=".85" p-id="50871"></path></svg>